<?xml version="1.0" standalone="no"?><!DOCTYPE svg PUBLIC "-//W3C//DTD SVG 1.1//EN" "http://www.w3.org/Graphics/SVG/1.1/DTD/svg11.dtd"><svg t="1516678312149" class="icon" style="" viewBox="0 0 1024 1024" version="1.1" xmlns="http://www.w3.org/2000/svg" p-id="1116" xmlns:xlink="http://www.w3.org/1999/xlink" width="16" height="16"><defs><style type="text/css"></style></defs><path d="M980.45781 192.630229c0 16.909112-13.70821 30.616298-30.616298 30.616298L92.579023 223.246527c-16.908088 0-30.616298-13.70821-30.616298-30.616298l0 0c0-16.910135 13.70821-30.616298 30.616298-30.616298l857.262488 0C966.7496 162.013931 980.45781 175.720094 980.45781 192.630229L980.45781 192.630229z" p-id="1117"></path><path d="M980.45781 498.795257c0 16.908088-13.70821 30.615275-30.616298 30.615275L92.579023 529.410532c-16.908088 0-30.616298-13.707187-30.616298-30.615275l0 0c0-16.909112 13.70821-30.616298 30.616298-30.616298l857.262488 0C966.7496 468.177935 980.45781 481.886145 980.45781 498.795257L980.45781 498.795257z" p-id="1118"></path><path d="M980.45781 804.961308c0 16.907065-13.70821 30.615275-30.616298 30.615275L92.579023 835.576583c-16.908088 0-30.616298-13.70821-30.616298-30.615275l0 0c0-16.910135 13.70821-30.618345 30.616298-30.618345l857.262488 0C966.7496 774.342963 980.45781 788.051173 980.45781 804.961308L980.45781 804.961308z" p-id="1119"></path></svg>